<svg xmlns:dc="http://purl.org/dc/elements/1.1/" xmlns:cc="http://creativecommons.org/ns#" xmlns:rdf="http://www.w3.org/1999/02/22-rdf-syntax-ns#" xmlns:svg="http://www.w3.org/2000/svg" xmlns="http://www.w3.org/2000/svg" xmlns:sodipodi="http://sodipodi.sourceforge.net/DTD/sodipodi-0.dtd" xmlns:inkscape="http://www.inkscape.org/namespaces/inkscape" viewBox="0 0 100 125" version="1.1" x="0px" y="0px">
<path style="color:#000000;font-style:normal;font-variant:normal;font-weight:normal;font-stretch:normal;font-size:medium;line-height:normal;font-family:sans-serif;font-variant-ligatures:normal;font-variant-position:normal;font-variant-caps:normal;font-variant-numeric:normal;font-variant-alternates:normal;font-feature-settings:normal;text-indent:0;text-align:start;text-decoration:none;text-decoration-line:none;text-decoration-style:solid;text-decoration-color:#000000;letter-spacing:normal;word-spacing:normal;text-transform:none;writing-mode:lr-tb;direction:ltr;text-orientation:mixed;dominant-baseline:auto;baseline-shift:baseline;text-anchor:start;white-space:normal;shape-padding:0;clip-rule:nonzero;display:inline;overflow:visible;visibility:visible;opacity:1;isolation:auto;mix-blend-mode:normal;color-interpolation:sRGB;color-interpolation-filters:linearRGB;solid-color:#000000;solid-opacity:1;vector-effect:none;fill-opacity:1;fill-rule:nonzero;paint-order:normal;color-rendering:auto;image-rendering:auto;shape-rendering:auto;text-rendering:auto;enable-background:accumulate" d="m 82.494114,16.992821 a 0.50005,0.50005 0 0 0 -0.07422,0.0078 H 37.501926 l -0.353516,0.146484 -20,20 a 0.50005,0.50005 0 0 0 -0.146484,0.419922 v 44.933594 l 0.5,0.5 h 44.919922 a 0.50005,0.50005 0 0 0 0.476562,-0.1875 0.50005,0.50005 0 0 0 0.0039,-0.0059 l 19.953132,-19.953084 0.146484,-0.353516 v -45 a 0.50005,0.50005 0 0 0 -0.507812,-0.507812 z m -44.785157,1.007812 h 43.585938 l -19,19 H 18.708957 Z m 44.292969,0.707031 v 43.585938 l -19,19 V 37.707664 Z m -64,19.292969 h 44 v 44 h -44 z"/>
</svg>