<svg xmlns="http://www.w3.org/2000/svg" data-name="Layer 1" viewBox="0 0 100 125" x="0px" y="0px">
<defs>
    <style>.cls-1,.cls-2{fill:none;stroke:#000;stroke-linejoin:round;}.cls-1{stroke-width:2px;}.cls-2{stroke-dasharray:1.08 1.08;}</style>
</defs>
<title>Artboard 16</title>
<path class="cls-1" d="M82,56.66c0,7.42-6.66,16.44-14.88,20.15s-14.88.7-14.88-6.72S58.9,53.66,67.12,49.95,82,49.24,82,56.66Z"/>
<path class="cls-2" d="M47.76,29.9c0,7.42-6.66,16.44-14.88,20.15S18,50.75,18,43.33s6.66-16.44,14.88-20.15S47.76,22.48,47.76,29.9Z"/>
<path class="cls-1" d="M78.43,49.56h0l-33-25.75a7,7,0,0,0-1.29-1l0,0h0c-2.73-1.62-6.75-1.61-11.25.42C24.66,26.89,18,35.91,18,43.33a8,8,0,0,0,3,6.72h0L54,75.63a7,7,0,0,0,2.51,1.94h0c2.7,1.25,6.45,1.1,10.6-.77C75.34,73.1,82,64.08,82,56.66,82,53.33,80.65,50.9,78.43,49.56Z"/>
</svg>