<svg xmlns="http://www.w3.org/2000/svg" data-name="Layer 1" viewBox="0 0 100 125" x="0px" y="0px"><defs>
<style>.cls-1,.cls-2,.cls-3,.cls-4{fill:none;stroke:#000;stroke-linejoin:round;}.cls-1{stroke-width:2px;}.cls-3{stroke-dasharray:1.01 1.01;}.cls-4{stroke-dasharray:1.01 1.01;}</style>
</defs>
<title>Artboard 3</title>
<polygon class="cls-1" points="45.07 78.15 13.07 71.41 13.07 34.46 45.07 41.2 45.07 78.15"/>
<polygon class="cls-1" points="45.07 41.2 13.07 34.46 54.93 21.85 86.93 28.59 45.07 41.2"/>
<polygon class="cls-1" points="86.93 65.54 45.07 78.15 45.07 41.2 86.93 28.59 86.93 65.54"/>
<polyline class="cls-2" points="13.56 70.9 13.07 70.79 13.55 70.65"/>
<polyline class="cls-3" points="14.51 70.36 54.93 58.19 85.95 64.72"/>
<polyline class="cls-2" points="86.44 64.82 86.93 64.92 86.45 65.07"/>
<polyline class="cls-3" points="85.48 65.36 45.07 77.53 14.05 71"/>
<line class="cls-2" x1="54.93" y1="58.19" x2="54.93" y2="57.69"/>
<line class="cls-4" x1="54.93" y1="56.68" x2="54.93" y2="22.86"/>
<line class="cls-2" x1="54.93" y1="22.35" x2="54.93" y2="21.85"/>
</svg>