<svg xmlns="http://www.w3.org/2000/svg" data-name="Layer 1" viewBox="0 0 100 125" x="0px" y="0px">
<defs>
    <style>.cls-1{fill:none;stroke:#000;stroke-linecap:round;stroke-linejoin:round;}</style>
</defs>
<title>Artboard 1</title>
<circle class="cls-1" cx="50" cy="50" r="25"/>
<path class="cls-1" d="M67.76,67.64C50.9,71.89,47.5,47.87,38.18,43.17a6,6,0,0,0-.69-.32c-5.18-2-9.47,1.91-12.37,6.11"/>
<path class="cls-1" d="M70.13,64.83C60.65,47.93,49.56,41.41,40.68,39.16a33.31,33.31,0,0,0-12.84-.74"/>
<path class="cls-1" d="M38,28.07c0,2.92,1.34,6.33,6.73,7.53a18.15,18.15,0,0,0,2.38.36C58.73,37,70,37.33,74.82,53h0"/>
<path class="cls-1" d="M45.88,74.38l-.08-.12C35.16,60,34.67,49.64,38.71,42.46a19.85,19.85,0,0,1,2.58-3.57,24.44,24.44,0,0,1,4-3.56,35.69,35.69,0,0,1,18-6.33"/>
</svg>