<svg xmlns="http://www.w3.org/2000/svg" xmlns:xlink="http://www.w3.org/1999/xlink" version="1.1" x="0px" y="0px" viewBox="0 0 100 125" enable-background="new 0 0 100 100" xml:space="preserve"><g>
<path d="M96.3,56.154c0.045-0.075,0.094-0.143,0.123-0.224c0.031-0.081,0.037-0.164,0.051-0.249   c0.016-0.086,0.035-0.169,0.033-0.259c-0.004-0.087-0.031-0.172-0.053-0.26c-0.016-0.072-0.012-0.146-0.041-0.217   c-0.008-0.016-0.021-0.026-0.029-0.042c-0.006-0.016-0.006-0.033-0.014-0.049L79.128,20.729c-0.033-0.069-0.092-0.114-0.135-0.173   c-0.055-0.072-0.1-0.149-0.166-0.208c-0.064-0.061-0.143-0.099-0.217-0.145c-0.072-0.044-0.141-0.094-0.221-0.123   c-0.084-0.031-0.172-0.039-0.26-0.053c-0.082-0.013-0.16-0.033-0.244-0.03c-0.096,0.002-0.186,0.032-0.279,0.054   c-0.066,0.017-0.135,0.013-0.203,0.04L21.567,43.279c-0.191,0.08-0.346,0.204-0.477,0.349c-0.082,0.083-0.154,0.179-0.211,0.29   L3.64,78.042c-0.213,0.419-0.191,0.918,0.055,1.318s0.682,0.644,1.15,0.644h34.48c0,0,0.002,0,0.004,0l0.002,0   c0.012,0,0.02,0,0.023,0c0.207,0,0.396-0.054,0.57-0.136l55.758-23.156c0.01-0.005,0.018-0.014,0.027-0.019   c0.021-0.009,0.043-0.013,0.064-0.023c0.068-0.034,0.113-0.092,0.172-0.136c0.072-0.054,0.15-0.099,0.211-0.165   C96.216,56.304,96.255,56.229,96.3,56.154z M39.97,76.923L34.905,66.9l25.91-10.76h29.197L39.97,76.923z M22.087,47.524   L31.79,66.73L7.231,76.93L22.087,47.524z M23.95,45.216l52.078-21.628L60.19,54.936L34.294,65.691L23.95,45.216z M93.267,54.789   H61.778l15.766-31.202L93.3,54.774L93.267,54.789z M9.862,77.301l22.539-9.361l4.729,9.361H9.862z"/></g></svg>